<svg width="70" height="70" viewBox="0 0 70 70" fill="none" xmlns="http://www.w3.org/2000/svg">
<rect width="70" height="70" rx="35" fill="white"/>
<path d="M17.78 52.2C16.7933 52.2 16.0867 51.9867 15.66 51.56C15.2333 51.1067 15.02 50.2667 15.02 49.04C15.02 48.2133 15.1 47.16 15.26 45.88C15.4467 44.5733 15.74 42.7867 16.14 40.52C16.8333 36.3333 17.38 32.7067 17.78 29.64C18.02 27.72 18.14 26.12 18.14 24.84C18.14 23.64 17.7 23.04 16.82 23.04C16.1267 23.04 15.2867 23.4 14.3 24.12C13.34 24.8133 12.2733 25.9333 11.1 27.48C10.7267 27.9867 10.3133 28.24 9.86 28.24C9.48667 28.24 9.15333 28.0667 8.86 27.72C8.59333 27.3467 8.46 26.9333 8.46 26.48C8.46 26.0533 8.54 25.6267 8.7 25.2C8.88667 24.7467 9.18 24.24 9.58 23.68C10.86 21.8933 12.2867 20.52 13.86 19.56C15.4333 18.5733 17.0067 18.08 18.58 18.08C20.0467 18.08 21.1667 18.5467 21.94 19.48C22.74 20.4133 23.14 21.7733 23.14 23.56C23.14 24.28 23.0733 25.1333 22.94 26.12C22.8067 27.08 22.6867 27.8667 22.58 28.48C22.4733 29.0933 22.3933 29.52 22.34 29.76C23.86 25.4133 25.5667 22.3867 27.46 20.68C29.3533 18.9467 31.4333 18.08 33.7 18.08C35.4333 18.08 36.7933 18.6933 37.78 19.92C38.7933 21.1467 39.3 22.88 39.3 25.12C39.3 26 39.18 27.0933 38.94 28.4C40.2733 24.72 41.8333 22.08 43.62 20.48C45.4067 18.88 47.46 18.08 49.78 18.08C51.6467 18.08 53.0733 18.68 54.06 19.88C55.0733 21.08 55.58 22.76 55.58 24.92C55.58 26.0933 55.4067 27.52 55.06 29.2L52.62 40.64C52.3533 41.9733 52.22 43.12 52.22 44.08C52.22 45.2 52.4733 46.04 52.98 46.6C53.5133 47.16 54.2467 47.44 55.18 47.44C56.06 47.44 56.9133 47.1467 57.74 46.56C58.5933 45.9733 59.5933 45 60.74 43.64C61.06 43.2667 61.42 43.08 61.82 43.08C62.1667 43.08 62.4333 43.24 62.62 43.56C62.8333 43.88 62.94 44.32 62.94 44.88C62.94 45.92 62.6867 46.7467 62.18 47.36C60.7933 49.04 59.42 50.2667 58.06 51.04C56.7 51.8133 55.2733 52.2 53.78 52.2C51.5133 52.2 49.74 51.5333 48.46 50.2C47.18 48.84 46.54 47.0267 46.54 44.76C46.54 43.1867 46.86 40.9067 47.5 37.92L49.1 30.6C49.1533 30.36 49.2467 29.9333 49.38 29.32C49.5133 28.7067 49.62 28.1333 49.7 27.6C49.78 27.04 49.82 26.4933 49.82 25.96C49.82 25.0267 49.6333 24.3333 49.26 23.88C48.9133 23.4 48.4067 23.16 47.74 23.16C46.4867 23.16 45.1667 23.9733 43.78 25.6C42.42 27.2 41.1133 29.8667 39.86 33.6C38.6333 37.3333 37.6333 42.1867 36.86 48.16C36.6733 49.76 36.34 50.84 35.86 51.4C35.4067 51.9333 34.66 52.2 33.62 52.2C32.7133 52.2 32.0467 51.9867 31.62 51.56C31.22 51.1333 31.02 50.3333 31.02 49.16C31.02 48.0667 31.1667 46.64 31.46 44.88C31.7533 43.0933 32.1267 41 32.58 38.6C33.8067 32.1467 34.42 27.9867 34.42 26.12C34.42 25.1067 34.22 24.36 33.82 23.88C33.4467 23.4 32.8733 23.16 32.1 23.16C30.7933 23.16 29.4467 23.9067 28.06 25.4C26.6733 26.8667 25.3133 29.4933 23.98 33.28C22.6733 37.04 21.58 42.1333 20.7 48.56C20.5133 49.92 20.2333 50.8667 19.86 51.4C19.5133 51.9333 18.82 52.2 17.78 52.2Z" fill="#216958"/>
</svg>
