<svg width="186" height="24" viewBox="0 0 186 24" fill="none" xmlns="http://www.w3.org/2000/svg">
<path d="M5.568 23.12C4.976 23.12 4.552 22.992 4.296 22.736C4.04 22.464 3.912 21.96 3.912 21.224C3.912 20.728 3.96 20.096 4.056 19.328C4.168 18.544 4.344 17.472 4.584 16.112C5 13.6 5.328 11.424 5.568 9.584C5.712 8.432 5.784 7.472 5.784 6.704C5.784 5.984 5.52 5.624 4.992 5.624C4.576 5.624 4.072 5.84 3.48 6.272C2.904 6.688 2.264 7.36 1.56 8.288C1.336 8.592 1.088 8.744 0.816 8.744C0.592 8.744 0.392 8.64 0.216 8.432C0.056 8.208 -0.024 7.96 -0.024 7.688C-0.024 7.432 0.024 7.176 0.12 6.92C0.232 6.648 0.408 6.344 0.648 6.008C1.416 4.936 2.272 4.112 3.216 3.536C4.16 2.944 5.104 2.648 6.048 2.648C6.928 2.648 7.6 2.928 8.064 3.488C8.544 4.048 8.784 4.864 8.784 5.936C8.784 6.368 8.744 6.88 8.664 7.472C8.584 8.048 8.512 8.52 8.448 8.888C8.384 9.256 8.336 9.512 8.304 9.656C9.216 7.048 10.24 5.232 11.376 4.208C12.512 3.168 13.76 2.648 15.12 2.648C16.16 2.648 16.976 3.016 17.568 3.752C18.176 4.488 18.48 5.528 18.48 6.872C18.48 7.4 18.408 8.056 18.264 8.84C19.064 6.632 20 5.048 21.072 4.088C22.144 3.128 23.376 2.648 24.768 2.648C25.888 2.648 26.744 3.008 27.336 3.728C27.944 4.448 28.248 5.456 28.248 6.752C28.248 7.456 28.144 8.312 27.936 9.32L26.472 16.184C26.312 16.984 26.232 17.672 26.232 18.248C26.232 18.92 26.384 19.424 26.688 19.76C27.008 20.096 27.448 20.264 28.008 20.264C28.536 20.264 29.048 20.088 29.544 19.736C30.056 19.384 30.656 18.8 31.344 17.984C31.536 17.76 31.752 17.648 31.992 17.648C32.2 17.648 32.36 17.744 32.472 17.936C32.6 18.128 32.664 18.392 32.664 18.728C32.664 19.352 32.512 19.848 32.208 20.216C31.376 21.224 30.552 21.96 29.736 22.424C28.92 22.888 28.064 23.12 27.168 23.12C25.808 23.12 24.744 22.72 23.976 21.92C23.208 21.104 22.824 20.016 22.824 18.656C22.824 17.712 23.016 16.344 23.4 14.552L24.36 10.16C24.392 10.016 24.448 9.76 24.528 9.392C24.608 9.024 24.672 8.68 24.72 8.36C24.768 8.024 24.792 7.696 24.792 7.376C24.792 6.816 24.68 6.4 24.456 6.128C24.248 5.84 23.944 5.696 23.544 5.696C22.792 5.696 22 6.184 21.168 7.16C20.352 8.12 19.568 9.72 18.816 11.96C18.08 14.2 17.48 17.112 17.016 20.696C16.904 21.656 16.704 22.304 16.416 22.64C16.144 22.96 15.696 23.12 15.072 23.12C14.528 23.12 14.128 22.992 13.872 22.736C13.632 22.48 13.512 22 13.512 21.296C13.512 20.64 13.6 19.784 13.776 18.728C13.952 17.656 14.176 16.4 14.448 14.96C15.184 11.088 15.552 8.592 15.552 7.472C15.552 6.864 15.432 6.416 15.192 6.128C14.968 5.84 14.624 5.696 14.16 5.696C13.376 5.696 12.568 6.144 11.736 7.04C10.904 7.92 10.088 9.496 9.288 11.768C8.504 14.024 7.848 17.08 7.32 20.936C7.208 21.752 7.04 22.32 6.816 22.64C6.608 22.96 6.192 23.12 5.568 23.12ZM33.8741 10.232C33.2021 10.232 32.6981 10.08 32.3621 9.776C32.0261 9.456 31.8581 9.016 31.8581 8.456C31.8581 7.896 32.0741 7.432 32.5061 7.064C32.9541 6.68 33.5061 6.488 34.1621 6.488C34.7541 6.488 35.2341 6.632 35.6021 6.92C35.9701 7.208 36.1541 7.616 36.1541 8.144C36.1541 8.784 35.9461 9.296 35.5301 9.68C35.1141 10.048 34.5621 10.232 33.8741 10.232ZM33.6821 23.12C32.6421 23.12 31.8821 22.752 31.4021 22.016C30.9381 21.28 30.7061 20.304 30.7061 19.088C30.7061 18.368 30.7941 17.448 30.9701 16.328C31.1621 15.192 31.4021 14.136 31.6901 13.16C31.8341 12.648 32.0261 12.296 32.2661 12.104C32.5061 11.912 32.8901 11.816 33.4181 11.816C34.2341 11.816 34.6421 12.088 34.6421 12.632C34.6421 13.032 34.4901 13.96 34.1861 15.416C33.8021 17.176 33.6101 18.368 33.6101 18.992C33.6101 19.472 33.6741 19.84 33.8021 20.096C33.9301 20.352 34.1461 20.48 34.4501 20.48C34.7381 20.48 35.0981 20.28 35.5301 19.88C35.9621 19.48 36.5381 18.848 37.2581 17.984C37.4501 17.76 37.6661 17.648 37.9061 17.648C38.1141 17.648 38.2741 17.744 38.3861 17.936C38.5141 18.128 38.5781 18.392 38.5781 18.728C38.5781 19.368 38.4261 19.864 38.1221 20.216C36.5381 22.152 35.0581 23.12 33.6821 23.12ZM38.3404 23.12C37.7324 23.12 37.3004 22.8 37.0444 22.16C36.8044 21.52 36.6844 20.496 36.6844 19.088C36.6844 17.008 36.9804 15.032 37.5724 13.16C37.7164 12.696 37.9484 12.36 38.2684 12.152C38.6044 11.928 39.0684 11.816 39.6604 11.816C39.9804 11.816 40.2044 11.856 40.3324 11.936C40.4604 12.016 40.5244 12.168 40.5244 12.392C40.5244 12.648 40.4044 13.224 40.1644 14.12C40.0044 14.76 39.8764 15.32 39.7804 15.8C39.6844 16.28 39.6044 16.872 39.5404 17.576C40.0684 16.2 40.6604 15.08 41.3164 14.216C41.9724 13.352 42.6124 12.736 43.2364 12.368C43.8764 12 44.4604 11.816 44.9884 11.816C46.0284 11.816 46.5484 12.336 46.5484 13.376C46.5484 14 46.3724 15.128 46.0204 16.76C45.7164 18.152 45.5644 19.072 45.5644 19.52C45.5644 20.16 45.7964 20.48 46.2604 20.48C46.5804 20.48 46.9564 20.288 47.3884 19.904C47.8364 19.504 48.4284 18.864 49.1644 17.984C49.3564 17.76 49.5724 17.648 49.8124 17.648C50.0204 17.648 50.1804 17.744 50.2924 17.936C50.4204 18.128 50.4844 18.392 50.4844 18.728C50.4844 19.368 50.3324 19.864 50.0284 20.216C49.3404 21.064 48.5964 21.76 47.7964 22.304C47.0124 22.848 46.1164 23.12 45.1084 23.12C44.2924 23.12 43.6764 22.888 43.2604 22.424C42.8444 21.944 42.6364 21.256 42.6364 20.36C42.6364 19.912 42.7484 19.112 42.9724 17.96C43.1804 16.952 43.2844 16.256 43.2844 15.872C43.2844 15.616 43.1964 15.488 43.0204 15.488C42.8124 15.488 42.5164 15.76 42.1324 16.304C41.7644 16.832 41.3804 17.536 40.9804 18.416C40.5964 19.296 40.2844 20.224 40.0444 21.2C39.8684 21.952 39.6604 22.464 39.4204 22.736C39.1964 22.992 38.8364 23.12 38.3404 23.12ZM50.2466 23.12C49.6386 23.12 49.2066 22.8 48.9506 22.16C48.7106 21.52 48.5906 20.496 48.5906 19.088C48.5906 17.008 48.8866 15.032 49.4786 13.16C49.6226 12.696 49.8546 12.36 50.1746 12.152C50.5106 11.928 50.9746 11.816 51.5666 11.816C51.8866 11.816 52.1106 11.856 52.2386 11.936C52.3666 12.016 52.4306 12.168 52.4306 12.392C52.4306 12.648 52.3106 13.224 52.0706 14.12C51.9106 14.76 51.7826 15.32 51.6866 15.8C51.5906 16.28 51.5106 16.872 51.4466 17.576C51.9746 16.2 52.5666 15.08 53.2226 14.216C53.8786 13.352 54.5186 12.736 55.1426 12.368C55.7826 12 56.3666 11.816 56.8946 11.816C57.9346 11.816 58.4546 12.336 58.4546 13.376C58.4546 14 58.2786 15.128 57.9266 16.76C57.6226 18.152 57.4706 19.072 57.4706 19.52C57.4706 20.16 57.7026 20.48 58.1666 20.48C58.4866 20.48 58.8626 20.288 59.2946 19.904C59.7426 19.504 60.3346 18.864 61.0706 17.984C61.2626 17.76 61.4786 17.648 61.7186 17.648C61.9266 17.648 62.0866 17.744 62.1986 17.936C62.3266 18.128 62.3906 18.392 62.3906 18.728C62.3906 19.368 62.2386 19.864 61.9346 20.216C61.2466 21.064 60.5026 21.76 59.7026 22.304C58.9186 22.848 58.0226 23.12 57.0146 23.12C56.1986 23.12 55.5826 22.888 55.1666 22.424C54.7506 21.944 54.5426 21.256 54.5426 20.36C54.5426 19.912 54.6546 19.112 54.8786 17.96C55.0866 16.952 55.1906 16.256 55.1906 15.872C55.1906 15.616 55.1026 15.488 54.9266 15.488C54.7186 15.488 54.4226 15.76 54.0386 16.304C53.6706 16.832 53.2866 17.536 52.8866 18.416C52.5026 19.296 52.1906 20.224 51.9506 21.2C51.7746 21.952 51.5666 22.464 51.3266 22.736C51.1026 22.992 50.7426 23.12 50.2466 23.12ZM63.2089 23.12C62.2969 23.12 61.5529 22.76 60.9769 22.04C60.4169 21.32 60.1369 20.376 60.1369 19.208C60.1369 17.928 60.4329 16.72 61.0249 15.584C61.6169 14.432 62.4009 13.512 63.3769 12.824C64.3689 12.12 65.4169 11.768 66.5209 11.768C66.8729 11.768 67.1049 11.84 67.2169 11.984C67.3449 12.112 67.4489 12.352 67.5289 12.704C67.8329 12.64 68.1689 12.608 68.5369 12.608C68.9209 12.608 69.2169 12.704 69.4249 12.896C69.6329 13.088 69.7369 13.36 69.7369 13.712C69.7369 14.08 69.6569 14.72 69.4969 15.632C69.3209 16.608 69.1849 17.544 69.0889 18.44C68.9929 19.32 68.9449 20.312 68.9449 21.416C68.9449 22.024 68.8169 22.464 68.5609 22.736C68.3209 22.992 67.9209 23.12 67.3609 23.12C66.8169 23.12 66.4089 22.992 66.1369 22.736C65.8809 22.464 65.7529 22.032 65.7529 21.44L65.7769 21.056C65.2809 22.432 64.4249 23.12 63.2089 23.12ZM64.1449 20.696C64.5929 20.696 65.0009 20.384 65.3689 19.76C65.7369 19.136 66.0649 18.024 66.3529 16.424L66.8089 14C66.1529 14.016 65.5449 14.272 64.9849 14.768C64.4249 15.248 63.9769 15.888 63.6409 16.688C63.3049 17.488 63.1369 18.336 63.1369 19.232C63.1369 19.712 63.2249 20.08 63.4009 20.336C63.5929 20.576 63.8409 20.696 64.1449 20.696ZM100.017 17.648C100.225 17.648 100.385 17.744 100.497 17.936C100.625 18.128 100.689 18.392 100.689 18.728C100.689 19.352 100.537 19.848 100.233 20.216C98.6486 22.152 96.9606 23.12 95.1686 23.12C93.6166 23.12 92.3766 22.52 91.4486 21.32C90.5206 20.12 90.0566 18.4 90.0566 16.16C90.0566 15.616 90.0806 15.072 90.1286 14.528C89.0726 14.72 87.9206 14.864 86.6726 14.96C85.8406 15.024 85.2726 15.064 84.9686 15.08C84.6486 16.712 84.2006 18.712 83.6246 21.08C83.2886 22.472 82.6486 23.168 81.7046 23.168C80.6806 23.168 80.1686 22.704 80.1686 21.776C80.1686 21.568 80.2086 21.28 80.2886 20.912C80.8326 18.72 81.2646 16.864 81.5846 15.344L80.4326 15.392C79.9046 15.392 79.5206 15.304 79.2806 15.128C79.0406 14.936 78.9206 14.632 78.9206 14.216C78.9206 13.688 79.0726 13.304 79.3766 13.064C79.6806 12.808 80.1846 12.664 80.8886 12.632L82.1606 12.584C82.5766 10.328 82.7846 8.608 82.7846 7.424C82.7846 6.672 82.6726 6.16 82.4486 5.888C82.2246 5.616 81.9286 5.48 81.5606 5.48C80.4406 5.48 79.1766 6.416 77.7686 8.288C77.5606 8.56 77.3286 8.696 77.0726 8.696C76.8486 8.696 76.6566 8.592 76.4966 8.384C76.3366 8.176 76.2566 7.912 76.2566 7.592C76.2566 7.096 76.4566 6.568 76.8566 6.008C77.5606 5.032 78.4486 4.232 79.5206 3.608C80.5926 2.968 81.6806 2.648 82.7846 2.648C83.8246 2.648 84.6246 3.008 85.1846 3.728C85.7606 4.432 86.0486 5.536 86.0486 7.04C86.0486 8.368 85.8566 10.168 85.4726 12.44L87.8246 12.32C88.8326 12.272 89.6966 12.192 90.4166 12.08C90.7046 10.32 91.1446 8.672 91.7366 7.136C92.3286 5.6 93.0646 4.352 93.9446 3.392C94.8246 2.432 95.8086 1.952 96.8966 1.952C97.6966 1.952 98.3286 2.272 98.7926 2.912C99.2566 3.536 99.4886 4.36 99.4886 5.384C99.4886 9.352 97.4646 12.104 93.4166 13.64C93.3686 14.28 93.3446 14.944 93.3446 15.632C93.3446 17.312 93.5526 18.504 93.9686 19.208C94.3846 19.912 94.9686 20.264 95.7206 20.264C96.3766 20.264 96.9766 20.096 97.5206 19.76C98.0646 19.408 98.6806 18.816 99.3686 17.984C99.5606 17.76 99.7766 17.648 100.017 17.648ZM96.7766 4.04C96.4246 4.04 96.0486 4.36 95.6486 5C95.2646 5.64 94.8966 6.512 94.5446 7.616C94.1926 8.72 93.9126 9.928 93.7046 11.24C94.9846 10.712 95.9286 9.96 96.5366 8.984C97.1446 8.008 97.4486 6.752 97.4486 5.216C97.4486 4.848 97.3846 4.56 97.2566 4.352C97.1286 4.144 96.9686 4.04 96.7766 4.04ZM101.194 23.12C100.474 23.12 99.8818 22.792 99.4178 22.136C98.9698 21.464 98.7458 20.632 98.7458 19.64C98.7458 18.44 98.8258 17.344 98.9858 16.352C99.1458 15.344 99.4098 14.28 99.7778 13.16C99.9378 12.68 100.162 12.336 100.45 12.128C100.738 11.92 101.194 11.816 101.818 11.816C102.17 11.816 102.41 11.872 102.538 11.984C102.682 12.096 102.754 12.264 102.754 12.488C102.754 12.616 102.666 13.048 102.49 13.784C102.33 14.376 102.202 14.912 102.106 15.392C101.786 17.072 101.626 18.192 101.626 18.752C101.626 19.088 101.666 19.328 101.746 19.472C101.826 19.6 101.954 19.664 102.13 19.664C102.37 19.664 102.666 19.424 103.018 18.944C103.386 18.464 103.77 17.736 104.17 16.76C104.586 15.784 104.986 14.584 105.37 13.16C105.498 12.68 105.69 12.336 105.946 12.128C106.218 11.92 106.618 11.816 107.146 11.816C107.514 11.816 107.77 11.864 107.914 11.96C108.058 12.04 108.13 12.2 108.13 12.44C108.13 12.84 107.93 13.936 107.53 15.728C107.082 17.776 106.858 19.04 106.858 19.52C106.858 19.824 106.922 20.064 107.05 20.24C107.178 20.4 107.346 20.48 107.554 20.48C107.874 20.48 108.25 20.288 108.682 19.904C109.13 19.504 109.722 18.864 110.458 17.984C110.65 17.76 110.866 17.648 111.106 17.648C111.314 17.648 111.474 17.744 111.586 17.936C111.714 18.128 111.778 18.392 111.778 18.728C111.778 19.368 111.626 19.864 111.322 20.216C110.634 21.064 109.89 21.76 109.09 22.304C108.306 22.848 107.41 23.12 106.402 23.12C105.634 23.12 105.066 22.824 104.698 22.232C104.346 21.64 104.17 20.808 104.17 19.736C103.898 20.824 103.49 21.664 102.946 22.256C102.402 22.832 101.818 23.12 101.194 23.12ZM112.28 23.12C111.56 23.12 110.968 22.792 110.504 22.136C110.056 21.464 109.832 20.632 109.832 19.64C109.832 18.44 109.912 17.344 110.072 16.352C110.232 15.344 110.496 14.28 110.864 13.16C111.024 12.68 111.248 12.336 111.536 12.128C111.824 11.92 112.28 11.816 112.904 11.816C113.256 11.816 113.496 11.872 113.624 11.984C113.768 12.096 113.84 12.264 113.84 12.488C113.84 12.616 113.752 13.048 113.576 13.784C113.416 14.376 113.288 14.912 113.192 15.392C112.872 17.072 112.712 18.192 112.712 18.752C112.712 19.088 112.752 19.328 112.832 19.472C112.912 19.6 113.04 19.664 113.216 19.664C113.456 19.664 113.752 19.424 114.104 18.944C114.472 18.464 114.856 17.736 115.256 16.76C115.672 15.784 116.072 14.584 116.456 13.16C116.584 12.68 116.776 12.336 117.032 12.128C117.304 11.92 117.704 11.816 118.232 11.816C118.6 11.816 118.856 11.864 119 11.96C119.144 12.04 119.216 12.2 119.216 12.44C119.216 12.84 119.016 13.936 118.616 15.728C118.168 17.776 117.944 19.04 117.944 19.52C117.944 19.824 118.008 20.064 118.136 20.24C118.264 20.4 118.432 20.48 118.64 20.48C118.96 20.48 119.336 20.288 119.768 19.904C120.216 19.504 120.808 18.864 121.544 17.984C121.736 17.76 121.952 17.648 122.192 17.648C122.4 17.648 122.56 17.744 122.672 17.936C122.8 18.128 122.864 18.392 122.864 18.728C122.864 19.368 122.712 19.864 122.408 20.216C121.72 21.064 120.976 21.76 120.176 22.304C119.392 22.848 118.496 23.12 117.488 23.12C116.72 23.12 116.152 22.824 115.784 22.232C115.432 21.64 115.256 20.808 115.256 19.736C114.984 20.824 114.576 21.664 114.032 22.256C113.488 22.832 112.904 23.12 112.28 23.12ZM125.382 23.648C124.55 23.648 123.91 23.456 123.462 23.072C123.03 22.688 122.814 22.256 122.814 21.776C122.814 21.36 122.966 21 123.27 20.696C123.574 20.392 124.022 20.24 124.614 20.24C124.822 20.24 125.062 20.264 125.334 20.312C125.622 20.344 125.838 20.368 125.982 20.384C125.966 19.968 125.87 19.576 125.694 19.208C125.534 18.84 125.326 18.488 125.07 18.152C124.814 17.8 124.574 17.496 124.35 17.24C123.854 18.184 123.358 18.968 122.862 19.592C122.382 20.216 121.854 20.808 121.278 21.368C120.99 21.656 120.686 21.8 120.366 21.8C120.11 21.8 119.902 21.712 119.742 21.536C119.582 21.344 119.502 21.112 119.502 20.84C119.502 20.52 119.614 20.224 119.838 19.952L120.15 19.568C121.03 18.48 121.694 17.584 122.142 16.88C122.414 16.416 122.734 15.8 123.102 15.032C123.47 14.248 123.83 13.44 124.182 12.608C124.486 11.904 125.118 11.552 126.078 11.552C126.526 11.552 126.838 11.592 127.014 11.672C127.19 11.752 127.278 11.88 127.278 12.056C127.278 12.152 127.246 12.304 127.182 12.512C127.118 12.72 127.03 12.928 126.918 13.136C126.63 13.712 126.486 14.2 126.486 14.6C126.486 14.84 126.566 15.104 126.726 15.392C126.902 15.68 127.166 16.04 127.518 16.472C128.03 17.144 128.414 17.72 128.67 18.2C128.942 18.664 129.078 19.176 129.078 19.736C129.078 19.896 129.062 20.12 129.03 20.408C129.814 20.104 130.734 19.296 131.79 17.984C131.982 17.76 132.198 17.648 132.438 17.648C132.646 17.648 132.806 17.744 132.918 17.936C133.046 18.128 133.11 18.392 133.11 18.728C133.11 19.336 132.958 19.832 132.654 20.216C131.854 21.208 131.086 21.888 130.35 22.256C129.63 22.608 128.734 22.8 127.662 22.832C127.022 23.376 126.262 23.648 125.382 23.648ZM145.032 17.648C145.24 17.648 145.4 17.744 145.512 17.936C145.64 18.128 145.704 18.392 145.704 18.728C145.704 19.368 145.552 19.864 145.248 20.216C144.528 21.096 143.8 21.8 143.064 22.328C142.328 22.856 141.456 23.12 140.448 23.12C139.216 23.12 138.224 22.768 137.472 22.064C136.72 21.36 136.344 20.424 136.344 19.256C136.344 18.632 136.664 18.184 137.304 17.912C138.008 17.608 138.512 17.288 138.816 16.952C139.12 16.6 139.272 16.176 139.272 15.68C139.272 15.392 139.208 15.176 139.08 15.032C138.968 14.888 138.824 14.816 138.648 14.816C138.216 14.816 137.736 15.128 137.208 15.752C136.696 16.376 136.216 17.184 135.768 18.176C135.32 19.152 134.968 20.16 134.712 21.2C134.536 21.952 134.328 22.464 134.088 22.736C133.864 22.992 133.504 23.12 133.008 23.12C132.512 23.12 132.144 22.944 131.904 22.592C131.68 22.224 131.528 21.664 131.448 20.912C131.368 20.16 131.328 19.056 131.328 17.6C131.328 15.136 131.576 12.568 132.072 9.896C132.584 7.224 133.328 4.984 134.304 3.176C135.296 1.352 136.48 0.439999 137.856 0.439999C138.592 0.439999 139.184 0.759999 139.632 1.4C140.096 2.024 140.328 2.84 140.328 3.848C140.328 5.464 139.856 7.144 138.912 8.888C137.968 10.616 136.432 12.64 134.304 14.96C134.256 15.792 134.232 16.648 134.232 17.528C135 15.528 135.88 14.08 136.872 13.184C137.864 12.272 138.792 11.816 139.656 11.816C140.456 11.816 141.096 12.088 141.576 12.632C142.072 13.176 142.32 13.848 142.32 14.648C142.32 15.528 142.096 16.336 141.648 17.072C141.2 17.808 140.432 18.464 139.344 19.04C139.408 19.472 139.6 19.824 139.92 20.096C140.256 20.352 140.656 20.48 141.12 20.48C141.616 20.48 142.096 20.288 142.56 19.904C143.024 19.52 143.632 18.88 144.384 17.984C144.576 17.76 144.792 17.648 145.032 17.648ZM137.352 2.816C137.064 2.816 136.744 3.232 136.392 4.064C136.04 4.88 135.696 5.992 135.36 7.4C135.04 8.792 134.776 10.312 134.568 11.96C135.56 10.792 136.376 9.52 137.016 8.144C137.672 6.768 138 5.52 138 4.4C138 3.888 137.944 3.496 137.832 3.224C137.72 2.952 137.56 2.816 137.352 2.816ZM156.009 15.632C156.217 15.632 156.377 15.736 156.489 15.944C156.601 16.152 156.657 16.416 156.657 16.736C156.657 17.504 156.425 17.96 155.961 18.104C155.001 18.44 153.945 18.632 152.793 18.68C152.489 20.024 151.889 21.104 150.993 21.92C150.097 22.72 149.081 23.12 147.945 23.12C146.985 23.12 146.161 22.888 145.473 22.424C144.801 21.96 144.289 21.344 143.937 20.576C143.585 19.808 143.409 18.976 143.409 18.08C143.409 16.864 143.641 15.784 144.105 14.84C144.569 13.88 145.209 13.136 146.025 12.608C146.841 12.064 147.745 11.792 148.737 11.792C149.953 11.792 150.929 12.216 151.665 13.064C152.417 13.896 152.857 14.928 152.985 16.16C153.737 16.112 154.633 15.952 155.673 15.68C155.801 15.648 155.913 15.632 156.009 15.632ZM148.137 20.576C148.649 20.576 149.089 20.368 149.457 19.952C149.841 19.536 150.097 18.936 150.225 18.152C149.729 17.816 149.345 17.376 149.073 16.832C148.817 16.288 148.689 15.712 148.689 15.104C148.689 14.848 148.713 14.592 148.761 14.336H148.641C148.001 14.336 147.465 14.648 147.033 15.272C146.617 15.88 146.409 16.744 146.409 17.864C146.409 18.744 146.577 19.416 146.913 19.88C147.265 20.344 147.673 20.576 148.137 20.576ZM156.301 23.12C155.693 23.12 155.261 22.8 155.005 22.16C154.765 21.52 154.645 20.496 154.645 19.088C154.645 17.008 154.941 15.032 155.533 13.16C155.677 12.696 155.909 12.36 156.229 12.152C156.565 11.928 157.029 11.816 157.621 11.816C157.941 11.816 158.165 11.856 158.293 11.936C158.421 12.016 158.485 12.168 158.485 12.392C158.485 12.648 158.365 13.224 158.125 14.12C157.965 14.76 157.837 15.32 157.741 15.8C157.645 16.28 157.565 16.872 157.501 17.576C158.029 16.2 158.621 15.08 159.277 14.216C159.933 13.352 160.573 12.736 161.197 12.368C161.837 12 162.421 11.816 162.949 11.816C163.989 11.816 164.509 12.336 164.509 13.376C164.509 14 164.333 15.128 163.981 16.76C163.677 18.152 163.525 19.072 163.525 19.52C163.525 20.16 163.757 20.48 164.221 20.48C164.541 20.48 164.917 20.288 165.349 19.904C165.797 19.504 166.389 18.864 167.125 17.984C167.317 17.76 167.533 17.648 167.773 17.648C167.981 17.648 168.141 17.744 168.253 17.936C168.381 18.128 168.445 18.392 168.445 18.728C168.445 19.368 168.293 19.864 167.989 20.216C167.301 21.064 166.557 21.76 165.757 22.304C164.973 22.848 164.077 23.12 163.069 23.12C162.253 23.12 161.637 22.888 161.221 22.424C160.805 21.944 160.597 21.256 160.597 20.36C160.597 19.912 160.709 19.112 160.933 17.96C161.141 16.952 161.245 16.256 161.245 15.872C161.245 15.616 161.157 15.488 160.981 15.488C160.773 15.488 160.477 15.76 160.093 16.304C159.725 16.832 159.341 17.536 158.941 18.416C158.557 19.296 158.245 20.224 158.005 21.2C157.829 21.952 157.621 22.464 157.381 22.736C157.157 22.992 156.797 23.12 156.301 23.12ZM177.208 17.648C177.416 17.648 177.576 17.744 177.688 17.936C177.816 18.128 177.88 18.392 177.88 18.728C177.88 19.368 177.728 19.864 177.424 20.216C176.832 20.936 175.992 21.6 174.904 22.208C173.832 22.816 172.68 23.12 171.448 23.12C169.768 23.12 168.464 22.664 167.536 21.752C166.608 20.84 166.144 19.592 166.144 18.008C166.144 16.904 166.376 15.88 166.84 14.936C167.304 13.976 167.944 13.216 168.76 12.656C169.592 12.096 170.528 11.816 171.568 11.816C172.496 11.816 173.24 12.096 173.8 12.656C174.36 13.2 174.64 13.944 174.64 14.888C174.64 15.992 174.24 16.944 173.44 17.744C172.656 18.528 171.32 19.152 169.432 19.616C169.832 20.352 170.592 20.72 171.712 20.72C172.432 20.72 173.248 20.472 174.16 19.976C175.088 19.464 175.888 18.8 176.56 17.984C176.752 17.76 176.968 17.648 177.208 17.648ZM171.16 14.168C170.568 14.168 170.064 14.512 169.648 15.2C169.248 15.888 169.048 16.72 169.048 17.696V17.744C169.992 17.52 170.736 17.184 171.28 16.736C171.824 16.288 172.096 15.768 172.096 15.176C172.096 14.872 172.008 14.632 171.832 14.456C171.672 14.264 171.448 14.168 171.16 14.168ZM177.629 23.12C177.021 23.12 176.589 22.8 176.333 22.16C176.093 21.52 175.973 20.496 175.973 19.088C175.973 17.008 176.269 15.032 176.861 13.16C177.005 12.696 177.237 12.36 177.557 12.152C177.893 11.928 178.357 11.816 178.949 11.816C179.269 11.816 179.493 11.856 179.621 11.936C179.749 12.016 179.813 12.168 179.813 12.392C179.813 12.648 179.693 13.224 179.453 14.12C179.293 14.76 179.165 15.32 179.069 15.8C178.973 16.28 178.893 16.872 178.829 17.576C179.357 16.2 179.949 15.08 180.605 14.216C181.261 13.352 181.901 12.736 182.525 12.368C183.165 12 183.749 11.816 184.277 11.816C184.789 11.816 185.173 11.952 185.429 12.224C185.701 12.48 185.837 12.864 185.837 13.376C185.837 13.792 185.749 14.576 185.573 15.728C185.413 16.704 185.285 17.632 185.189 18.512C185.093 19.376 185.045 20.344 185.045 21.416C185.045 22.024 184.917 22.464 184.661 22.736C184.421 22.992 184.021 23.12 183.461 23.12C182.933 23.12 182.549 22.984 182.309 22.712C182.069 22.44 181.949 22.032 181.949 21.488C181.949 20.848 182.061 19.792 182.285 18.32C182.477 17.04 182.573 16.224 182.573 15.872C182.573 15.616 182.485 15.488 182.309 15.488C182.101 15.488 181.805 15.76 181.421 16.304C181.053 16.832 180.669 17.536 180.269 18.416C179.885 19.296 179.573 20.224 179.333 21.2C179.157 21.952 178.949 22.464 178.709 22.736C178.485 22.992 178.125 23.12 177.629 23.12Z" fill="#3A8C79"/>
</svg>
